# Blender 5.1.0
# www.blender.org
mtllib cabinet.mtl
o kitchencabinet_Cube.220
v -1.000000 0.000000 0.870000
v -1.000000 0.000000 0.070000
v 1.000000 0.000000 0.870000
v 1.000000 0.000000 0.070000
v 0.040000 0.100000 0.980000
v 0.040000 0.140000 1.020000
v 0.000000 0.140000 0.980000
v 0.040000 1.860000 1.020000
v 0.040000 1.900000 0.980000
v 0.000000 1.860000 0.980000
v 0.040000 0.100000 0.820000
v 0.000000 0.140000 0.820000
v 0.000000 1.860000 0.820000
v 0.040000 1.900000 0.820000
v 0.860000 0.100000 0.980000
v 0.900000 0.140000 0.980000
v 0.860000 0.140000 1.020000
v 0.860000 1.900000 0.980000
v 0.860000 1.860000 1.020000
v 0.900000 1.860000 0.980000
v 0.900000 0.140000 0.820000
v 0.860000 0.100000 0.820000
v 0.860000 1.900000 0.820000
v 0.900000 1.860000 0.820000
v -0.860000 0.100000 0.980000
v -0.860000 0.140000 1.020000
v -0.900000 0.140000 0.980000
v -0.860000 1.860000 1.020000
v -0.860000 1.900000 0.980000
v -0.900000 1.860000 0.980000
v -0.860000 0.100000 0.820000
v -0.900000 0.140000 0.820000
v -0.900000 1.860000 0.820000
v -0.860000 1.900000 0.820000
v -0.040000 0.100000 0.980000
v -0.040000 0.140000 1.020000
v -0.040000 1.900000 0.980000
v -0.040000 1.860000 1.020000
v -0.040000 0.100000 0.820000
v -0.040000 1.900000 0.820000
v -0.150000 0.949999 1.111903
v -0.203977 1.003978 1.056796
v -0.226335 0.950001 1.056796
v -0.203977 0.896024 1.056796
v -0.150000 0.873665 1.056796
v -0.096023 0.896024 1.056796
v -0.073664 0.950001 1.056796
v -0.096023 1.003978 1.056796
v -0.150000 1.026335 1.056796
v -0.191759 0.991757 1.094086
v -0.191759 0.991757 1.019506
v -0.209056 0.949999 1.094086
v -0.209056 0.949999 1.019506
v -0.191759 0.908240 1.094086
v -0.191759 0.908240 1.019506
v -0.150000 0.890944 1.094086
v -0.150000 0.890944 1.019506
v -0.108242 0.908240 1.094086
v -0.108242 0.908240 1.019506
v -0.090944 0.949999 1.094086
v -0.090944 0.949999 1.019506
v -0.108242 0.991757 1.094086
v -0.108242 0.991757 1.019506
v -0.150000 1.009054 1.094086
v -0.150000 1.009054 1.019506
v 0.150000 0.949997 1.111903
v 0.096023 1.003976 1.056796
v 0.073665 0.949999 1.056796
v 0.096023 0.896022 1.056796
v 0.150000 0.873663 1.056796
v 0.203977 0.896022 1.056796
v 0.226336 0.949999 1.056796
v 0.203977 1.003976 1.056796
v 0.150000 1.026334 1.056796
v 0.108241 0.991755 1.094086
v 0.108241 0.991757 1.019506
v 0.090944 0.949997 1.094086
v 0.090944 0.949997 1.019506
v 0.108241 0.908238 1.094086
v 0.108241 0.908238 1.019506
v 0.150000 0.890942 1.094086
v 0.150000 0.990943 1.019506
v 0.191758 0.908238 1.094086
v 0.191758 0.908240 1.019506
v 0.209055 0.949997 1.094086
v 0.209055 0.949999 1.019506
v 0.191758 0.991755 1.094086
v 0.191758 0.991757 1.019506
v 0.150000 1.009053 1.094086
v 0.150000 0.909055 1.019506
v -0.950000 2.000000 0.820000
v -1.000000 1.950000 0.870000
v -0.950000 2.000000 0.120000
v -1.000000 1.950000 0.070000
v 0.950000 2.000000 0.820000
v 1.000000 1.950000 0.870000
v 0.950000 2.000000 0.120000
v 1.000000 1.950000 0.070000
vn -0.0000 1.0000 -0.0000
vn 1.0000 -0.0000 -0.0000
vn -1.0000 -0.0000 -0.0000
vn -0.0000 -1.0000 -0.0000
vn 0.3416 -0.3416 0.8756
vn 0.3416 0.3416 0.8756
vn -0.3416 0.3416 0.8756
vn -0.3416 -0.3416 0.8756
vn 0.3827 0.9239 -0.0000
vn -0.3827 0.9239 -0.0000
vn -0.3416 0.8756 0.3416
vn 0.3416 0.8756 0.3416
vn -0.3416 -0.8756 0.3416
vn -0.7588 -0.4606 0.4606
vn -0.7588 0.4606 0.4606
vn 0.3416 -0.8756 0.3416
vn 0.7588 -0.4606 0.4606
vn 0.7588 0.4606 0.4606
vn -0.3827 -0.9239 -0.0000
vn -0.7071 -0.7071 -0.0000
vn -0.7071 0.7071 -0.0000
vn 0.3827 -0.9239 -0.0000
vn 0.7071 -0.7071 -0.0000
vn 0.7071 0.7071 -0.0000
vn -0.0000 -0.0000 1.0000
vn -0.8756 -0.3416 0.3416
vn -0.8756 0.3416 0.3416
vn -0.9239 0.3827 -0.0000
vn -0.9239 -0.3827 -0.0000
vn -0.4606 -0.4606 0.7588
vn -0.4606 0.4606 0.7588
vn 0.4606 -0.4606 0.7588
vn 0.4606 0.4606 0.7588
vn -0.0000 -0.0000 -1.0000
vn 0.2042 0.2042 0.9574
vn -0.0000 0.2888 0.9574
vn 0.6416 0.6416 -0.4205
vn 0.9073 -0.0000 -0.4204
vn -0.9073 -0.0000 -0.4204
vn -0.6416 0.6416 -0.4205
vn -0.0000 -0.9073 -0.4204
vn -0.6416 -0.6416 -0.4204
vn 0.9073 -0.0000 0.4205
vn 0.6416 -0.6416 0.4204
vn -0.0000 0.9073 0.4205
vn 0.6416 0.6416 0.4205
vn -0.6416 -0.6416 0.4204
vn -0.9073 -0.0000 0.4204
vn -0.6416 0.6416 0.4205
vn -0.0000 -0.9073 0.4204
vn -0.0000 0.9073 -0.4205
vn -0.2042 0.2042 0.9574
vn 0.6416 -0.6416 -0.4204
vn 0.2042 -0.2042 0.9574
vn 0.2888 -0.0000 0.9574
vn -0.2042 -0.2042 0.9574
vn -0.0000 -0.2888 0.9574
vn -0.2888 -0.0000 0.9574
vn 0.2923 0.5465 -0.7848
vn 0.3425 0.5410 -0.7681
vn 0.9073 -0.0000 -0.4205
vn -0.3425 0.5410 -0.7681
vn -0.2923 0.5465 -0.7848
vn -0.0000 -0.5222 -0.8528
vn -0.3425 -0.5411 -0.7681
vn -0.2923 -0.5465 -0.7848
vn -0.0000 0.5222 -0.8528
vn 0.2923 -0.5464 -0.7848
vn 0.3425 -0.5410 -0.7681
vn -0.0000 0.7071 -0.7071
vn -0.0000 0.7071 0.7071
vt 0.936099 0.147843
vt 0.970151 0.147843
vt 0.971048 0.049884
vt 0.971048 0.114926
vt 0.935202 0.049884
vt 0.935202 0.114926
vt 0.935202 0.034259
vt 0.971048 0.034259
vt 0.667878 0.092808
vt 0.667878 0.136169
vt 0.657765 0.136169
vt 0.657765 0.092808
vt 0.667878 0.155130
vt 0.657765 0.155130
vt 0.668371 0.077183
vt 0.668371 0.120544
vt 0.657765 0.058223
vt 0.657765 0.061558
vt 0.657271 0.061558
vt 0.657765 0.167419
vt 0.657765 0.170755
vt 0.657271 0.167419
vt 0.667878 0.058223
vt 0.668371 0.061558
vt 0.667878 0.061558
vt 0.667878 0.170755
vt 0.667878 0.167419
vt 0.668371 0.167419
vt 0.657765 0.042598
vt 0.657271 0.045933
vt 0.657271 0.136169
vt 0.657271 0.092808
vt 0.657271 0.151794
vt 0.667878 0.042598
vt 0.668371 0.045933
vt 0.668371 0.151794
vt 0.668371 0.092808
vt 0.668371 0.136169
vt 0.656778 0.092808
vt 0.656778 0.136169
vt 0.646665 0.136169
vt 0.646665 0.092808
vt 0.656778 0.155130
vt 0.646665 0.155130
vt 0.646171 0.077183
vt 0.646171 0.120544
vt 0.646665 0.058223
vt 0.646665 0.061558
vt 0.646171 0.061558
vt 0.646665 0.167419
vt 0.646665 0.170755
vt 0.646171 0.167419
vt 0.656778 0.058223
vt 0.656778 0.061558
vt 0.656778 0.170755
vt 0.656778 0.167419
vt 0.646665 0.042598
vt 0.646171 0.045933
vt 0.646171 0.136169
vt 0.646171 0.092808
vt 0.646171 0.151794
vt 0.656778 0.042598
vt 0.935202 0.065509
vt 0.935202 0.130551
vt 0.971048 0.130551
vt 0.971048 0.065509
vt 0.798466 0.130479
vt 0.796875 0.131921
vt 0.796875 0.111372
vt 0.798466 0.099229
vt 0.798932 0.100248
vt 0.799784 0.080122
vt 0.799125 0.080122
vt 0.794625 0.080122
vt 0.793966 0.080122
vt 0.794818 0.100248
vt 0.795284 0.099229
vt 0.796875 0.059572
vt 0.796875 0.058131
vt 0.794818 0.059996
vt 0.795284 0.061015
vt 0.799784 0.095747
vt 0.799125 0.111372
vt 0.798466 0.092265
vt 0.798932 0.075621
vt 0.796875 0.117737
vt 0.798932 0.115873
vt 0.794818 0.075621
vt 0.795284 0.092265
vt 0.794625 0.111372
vt 0.793966 0.095747
vt 0.794818 0.115873
vt 0.795284 0.130479
vt 0.796875 0.073756
vt 0.796875 0.090822
vt 0.796875 0.100671
vt 0.796875 0.102112
vt 0.798466 0.061015
vt 0.798932 0.059996
vt 0.935202 0.132218
vt 0.971048 0.146176
vt 0.935202 0.146176
vt 0.971048 0.132218
s 1
usemtl cabinet_body
f 91/1/1 95/2/1 97/2/1 93/1/1
f 4/3/2 98/4/2 96/4/2 3/3/2
f 1/5/3 92/6/3 94/6/3 2/5/3
f 2/7/4 4/8/4 3/8/4 1/7/4
f 17/9/5 19/10/6 8/11/7 6/12/8
f 23/13/9 14/14/10 9/14/11 18/13/12
f 21/15/2 24/16/2 20/16/2 16/15/2
f 5/17/13 6/18/8 7/19/14
f 8/20/7 9/21/11 10/22/15
f 15/23/16 16/24/17 17/25/5
f 18/26/12 19/27/6 20/28/18
f 11/29/19 5/29/13 7/30/14 12/30/20
f 6/12/8 8/11/7 10/31/15 7/32/14
f 9/14/11 14/14/10 13/33/21 10/33/15
f 15/34/16 22/34/22 21/35/23 16/35/17
f 23/13/9 18/13/12 20/36/18 24/36/24
f 19/10/6 17/9/5 16/37/17 20/38/18
f 5/17/13 15/23/16 17/25/5 6/18/8
f 18/26/12 9/21/11 8/20/7 19/27/6
f 11/29/19 22/34/22 15/34/16 5/29/13
f 36/39/25 38/40/25 28/41/25 26/42/25
f 40/43/1 34/44/1 29/44/11 37/43/12
f 27/45/26 30/46/27 33/46/28 32/45/29
f 25/47/13 26/48/30 27/49/26
f 28/50/31 29/51/11 30/52/27
f 35/53/16 7/19/17 36/54/32
f 37/55/12 38/56/33 10/22/18
f 31/57/20 25/57/13 27/58/26 32/58/29
f 26/42/30 28/41/31 30/59/27 27/60/26
f 29/44/11 34/44/21 33/61/28 30/61/27
f 35/62/16 39/62/23 12/30/23 7/30/17
f 40/43/24 37/43/12 10/33/18 13/33/24
f 38/40/33 36/39/32 7/32/17 10/31/18
f 25/47/13 35/53/16 36/54/32 26/48/30
f 37/55/12 29/51/11 28/50/31 38/56/33
f 31/57/4 39/62/4 35/62/16 25/57/13
f 2/63/34 94/64/34 98/65/34 4/66/34
usemtl cabinet_knob
f 62/67/35 64/68/36 41/69/25
f 63/70/37 48/71/37 47/72/38 61/73/38
f 53/74/39 43/75/39 42/76/40 51/77/40
f 57/78/41 45/79/41 44/80/42 55/81/42
f 47/82/43 60/83/43 58/84/44 46/85/44
f 49/86/45 64/68/45 62/67/46 48/87/46
f 44/88/47 54/89/47 52/90/48 43/91/48
f 42/92/49 50/93/49 64/68/45 49/86/45
f 43/91/48 52/90/48 50/93/49 42/92/49
f 45/94/50 56/95/50 54/89/47 44/88/47
f 65/96/51 49/97/51 48/71/37 63/70/37
f 64/68/36 50/93/52 41/69/25
f 59/98/53 46/99/53 45/79/41 57/78/41
f 46/85/44 58/84/44 56/95/50 45/94/50
f 51/77/40 42/76/40 49/97/51 65/96/51
f 58/84/54 60/83/55 41/69/25
f 48/87/46 62/67/46 60/83/43 47/82/43
f 55/81/42 44/80/42 43/75/39 53/74/39
f 61/73/38 47/72/38 46/99/53 59/98/53
f 54/89/56 56/95/57 41/69/25
f 52/90/58 54/89/56 41/69/25
f 56/95/57 58/84/54 41/69/25
f 50/93/52 52/90/58 41/69/25
f 60/83/55 62/67/35 41/69/25
f 87/67/35 89/68/36 66/69/25
f 88/70/59 73/71/60 72/72/61 86/73/61
f 78/74/39 68/75/39 67/76/62 76/77/63
f 82/78/64 70/79/64 69/80/65 80/81/66
f 72/82/43 85/83/43 83/84/44 71/85/44
f 74/86/45 89/68/45 87/67/46 73/87/46
f 69/88/47 79/89/47 77/90/48 68/91/48
f 67/92/49 75/93/49 89/68/45 74/86/45
f 68/91/48 77/90/48 75/93/49 67/92/49
f 70/94/50 81/95/50 79/89/47 69/88/47
f 90/96/67 74/97/67 73/71/60 88/70/59
f 89/68/36 75/93/52 66/69/25
f 84/98/68 71/99/69 70/79/64 82/78/64
f 71/85/44 83/84/44 81/95/50 70/94/50
f 76/77/63 67/76/62 74/97/67 90/96/67
f 83/84/54 85/83/55 66/69/25
f 73/87/46 87/67/46 85/83/43 72/82/43
f 80/81/66 69/80/65 68/75/39 78/74/39
f 86/73/61 72/72/61 71/99/69 84/98/68
f 79/89/56 81/95/57 66/69/25
f 77/90/58 79/89/56 66/69/25
f 81/95/57 83/84/54 66/69/25
f 75/93/52 77/90/58 66/69/25
f 85/83/55 87/67/35 66/69/25
usemtl cabinet_body
f 91/100/21 93/100/21 94/64/21 92/64/21
f 93/1/70 97/2/70 98/101/70 94/102/70
f 97/103/24 95/103/24 96/65/24 98/65/24
f 95/2/71 91/1/71 92/102/71 96/101/71
f 3/66/25 96/65/25 92/64/25 1/63/25
