# Blender 5.1.0
# www.blender.org
mtllib pipe-down.mtl
o pipe
v 0.123205 0.500000 -0.071133
v 0.123205 -0.000000 -0.071132
v 0.123205 0.500000 0.071132
v 0.123205 0.000000 0.071132
v 0.000000 -0.000000 -0.142265
v 0.000000 0.500000 -0.142265
v 0.000000 0.000000 0.142265
v 0.000000 0.500000 0.142265
v -0.123205 -0.000000 -0.071132
v -0.123205 0.500000 -0.071133
v -0.123205 0.000000 0.071132
v -0.123205 0.500000 0.071132
vn 0.9174 0.1876 0.3510
vn 0.8539 -0.1668 -0.4930
vn 0.7464 0.6635 0.0506
vn 0.7464 -0.6635 -0.0506
vn 0.1193 0.2979 -0.9471
vn -0.0000 -0.2818 -0.9595
vn 0.3414 -0.6639 0.6653
vn -0.0000 0.2818 0.9595
vn -0.9174 -0.1876 0.3510
vn -0.8539 0.1668 -0.4930
vn -0.7464 -0.6635 0.0506
vn -0.7464 0.6635 -0.0506
vt 0.343750 0.225000
vt 0.343750 0.025000
s 1
usemtl colormap.003
f 3/1/1 2/2/2 1/1/3
f 2/2/2 3/1/1 4/2/4
f 6/1/5 2/2/2 5/2/6
f 2/2/2 6/1/5 1/1/3
f 3/1/1 7/2/7 4/2/4
f 7/2/7 3/1/1 8/1/8
f 11/2/9 10/1/10 9/2/11
f 10/1/10 11/2/9 12/1/12
f 6/1/5 3/1/1 1/1/3
f 3/1/1 6/1/5 8/1/8
f 8/1/8 6/1/5 10/1/10
f 8/1/8 10/1/10 12/1/12
f 10/1/10 5/2/6 9/2/11
f 5/2/6 10/1/10 6/1/5
f 8/1/8 11/2/9 7/2/7
f 11/2/9 8/1/8 12/1/12
f 7/2/7 2/2/2 4/2/4
f 2/2/2 7/2/7 5/2/6
f 5/2/6 7/2/7 11/2/9
f 5/2/6 11/2/9 9/2/11
o ring
v -0.173205 0.001879 -0.100000
v -0.173205 0.001879 0.100000
v -0.173205 0.101879 -0.100000
v 0.000000 0.001879 -0.200000
v 0.000000 0.101879 -0.200000
v 0.173205 0.001879 -0.100000
v 0.000000 0.001879 0.200000
v 0.000000 0.101879 0.200000
v 0.173205 0.101879 0.100000
v 0.173205 0.001879 0.100000
v 0.173205 0.101879 -0.100000
v -0.173205 0.101879 0.100000
vn -0.0000 -0.2843 -0.9587
vn -0.8642 -0.5021 -0.0331
vn -0.7465 -0.6635 0.0506
vn -0.8529 0.1735 -0.4924
vn 0.3575 0.5394 -0.7624
vn 0.8529 -0.1735 -0.4924
vn -0.0000 -0.2843 0.9587
vn 0.8642 0.5020 -0.0331
vn -0.3575 0.5394 0.7624
vn 0.7464 -0.6635 -0.0506
vn 0.7465 0.6635 0.0506
vn -0.7464 0.6635 -0.0506
vt 0.218750 0.275000
vt 0.218750 0.475000
s 1
usemtl colormap.003
f 16/3/13 14/3/14 13/3/15
f 14/3/14 15/4/16 13/3/15
f 15/4/16 16/3/13 13/3/15
f 16/3/13 15/4/16 17/4/17
f 17/4/17 18/3/18 16/3/13
f 18/3/18 19/3/19 16/3/13
f 16/3/13 19/3/19 14/3/14
f 19/3/19 21/4/20 20/4/21
f 20/4/21 14/3/14 19/3/19
f 21/4/20 19/3/19 22/3/22
f 19/3/19 18/3/18 22/3/22
f 18/3/18 21/4/20 22/3/22
f 17/4/17 21/4/20 23/4/23
f 21/4/20 18/3/18 23/4/23
f 21/4/20 17/4/17 20/4/21
f 18/3/18 17/4/17 23/4/23
f 14/3/14 20/4/21 24/4/24
f 20/4/21 15/4/16 24/4/24
f 20/4/21 17/4/17 15/4/16
f 15/4/16 14/3/14 24/4/24
